<svg xmlns="http://www.w3.org/2000/svg" viewBox="0 0 512 512" fill="none">
  <rect width="512" height="512" rx="96" fill="#0F172A"/>
  <rect x="24" y="24" width="464" height="464" rx="80" fill="#0D9488" opacity="0.15"/>
  <!-- Medical Cross -->
  <rect x="192" y="120" width="128" height="272" rx="16" fill="#0D9488"/>
  <rect x="120" y="192" width="272" height="128" rx="16" fill="#0D9488"/>
  <!-- Digital Circuit Lines -->
  <circle cx="192" cy="256" r="8" fill="#5EEAD4"/>
  <circle cx="320" cy="256" r="8" fill="#5EEAD4"/>
  <circle cx="256" cy="192" r="8" fill="#5EEAD4"/>
  <circle cx="256" cy="320" r="8" fill="#5EEAD4"/>
  <!-- Corner accents -->
  <rect x="48" y="48" width="40" height="4" rx="2" fill="#5EEAD4" opacity="0.6"/>
  <rect x="48" y="48" width="4" height="40" rx="2" fill="#5EEAD4" opacity="0.6"/>
  <rect x="424" y="48" width="40" height="4" rx="2" fill="#5EEAD4" opacity="0.6"/>
  <rect x="460" y="48" width="4" height="40" rx="2" fill="#5EEAD4" opacity="0.6"/>
  <rect x="48" y="460" width="40" height="4" rx="2" fill="#5EEAD4" opacity="0.6"/>
  <rect x="48" y="424" width="4" height="40" rx="2" fill="#5EEAD4" opacity="0.6"/>
  <rect x="424" y="460" width="40" height="4" rx="2" fill="#5EEAD4" opacity="0.6"/>
  <rect x="460" y="424" width="4" height="40" rx="2" fill="#5EEAD4" opacity="0.6"/>
</svg>
